<?xml version="1.0" encoding="UTF-8"?>
<svg id="Layer_1" xmlns="http://www.w3.org/2000/svg" version="1.1" viewBox="0 0 566.93 566.93">
  <!-- Generator: Adobe Illustrator 29.7.0, SVG Export Plug-In . SVG Version: 2.1.1 Build 138)  -->
  <defs>
    <style>
      .st0 {
        font-family: MapRoman-Normal, 'Map Roman';
        font-size: 40.22px;
        stroke-width: .85px;
      }

      .st0, .st1 {
        stroke: #2c3e50;
        stroke-miterlimit: 10;
      }

      .st0, .st2 {
        fill: #2c3e50;
      }

      .st1 {
        fill: none;
        stroke-linecap: square;
        stroke-width: 1.98px;
      }

      .st3 {
        fill: #78866b;
        font-family: MuseoSansRounded-500, 'Museo Sans Rounded';
        font-size: 30.18px;
      }
    </style>
  </defs>
  <text class="st0" transform="translate(169.33 407.82)"><tspan x="0" y="0">KINGDOM</tspan></text>
  <text class="st0" transform="translate(122.33 450.46)"><tspan x="0" y="0">RESTORATION</tspan></text>
  <text class="st3" transform="translate(185.51 484.76)"><tspan x="0" y="0">CONFERENCE</tspan></text>
  <line class="st1" x1="390.31" y1="473.16" x2="420.53" y2="473.16"/>
  <line class="st1" x1="141.07" y1="473.16" x2="171.29" y2="473.16"/>
  <g>
    <path class="st2" d="M333.61,91.66c6.06,11.23,5.36,26.12-3,35.78v-15.28c-.18-.02-.37-.04-.55-.05-.14.73-.28,1.46-.41,2.2-.72,4.28-1.99,8.51-1.45,12.92.41,3.32.96,6.62,1.47,9.92,1.44,9.35,5.52,17.7,9.73,26.02,1.36,2.68,2.43,5.51,3.67,8.37,1.7-2.74,3.41-5.47,5.1-8.2,3.69-5.98,7.5-11.89,11.03-17.97,2.07-3.56,3.75-7.36,5.47-11.12.32-.71.16-1.72,0-2.55-1.54-8.35.73-15.49,6.94-21.24,4.47-4.13,9.93-6.28,15.96-6.95,2.47-.27,4.97-.36,7.85-.55-.4,2.76-.7,5.22-1.11,7.66-.83,4.99-2.47,9.67-5.44,13.83-4.12,5.78-9.92,8.83-16.65,10.41-1.15.27-2.32.45-3.49.67l-.41-.45c2.19-3.38,4.27-6.83,6.59-10.12,2.29-3.24,4.81-6.32,7.03-9.68-1.01.89-2.03,1.76-3.03,2.66-3.58,3.23-7.17,6.51-9.5,10.76-1.64,2.99-2.9,6.23-3.92,9.49-2.72,8.66-5.97,17.09-9.68,25.36-2.97,6.63-5.91,13.28-8.54,20.05-1.88,4.83-2.25,10.01-2.38,15.18-.15,6.06-.25,12.13-.56,18.18-.13,2.46-.76,4.89-1.2,7.55,1.67-.62,3.32-1.23,4.97-1.85,6.23-2.31,12.38-4.81,17.68-8.9,3.52-2.72,6.94-5.59,10.25-8.57,5.87-5.27,12.62-9.06,19.86-12.02,3.35-1.37,6.78-2.52,10.21-3.78-.21-.14-.5-.34-.9-.61,5.14-3.91,10.32-7.52,16.31-9.94-1.18-.54-4.71.48-10.04,3.07-3.17,1.54-6.22,3.33-9.35,5.02,3.22-16.32,21.32-23.88,38.22-16.57-1.13,1.89-2.15,3.81-3.37,5.6-4.03,5.93-9.27,10.36-16.23,12.47-3.85,1.17-7.83,1.62-11.86,1.7-1.16.02-2.44.24-3.45.78-5.86,3.15-11.7,6.4-16.51,11.06-3.12,3.02-5.91,6.4-8.84,9.62-.77.85-1.54,1.71-2.29,2.58-.23.27-.4.59-.67.99,4.13,0,8.02.13,11.91-.04,3.82-.16,7.61-.71,11.17-2.37-2.28,2.98-5.37,4.79-8.8,5.69-4.9,1.29-9.93,2.14-14.92,3.09-4.2.8-8.2,2.13-11.93,4.23-8.16,4.6-16.48,8.96-24.39,13.96-7.09,4.48-13.78,9.6-20.53,14.59-4.87,3.59-9.48,7.54-14.35,11.12-1.69,1.24-2.26,2.66-2.2,4.55.11,3.49-.17,6.96-1.9,10.04-1.21,2.15-2.54,4.39-4.32,6.04-3.92,3.62-8.18,6.89-12.28,10.32-3.19,2.66-6.54,5.16-9.46,8.08-1.86,1.86-3.44,4.21-4.5,6.63-1.59,3.62-.25,7.13,1.52,10.42,1.91,3.54,4.83,6.08,8.43,8.27-2.29,1.78-4.43,3.49-6.64,5.11-.26.19-.98.02-1.31-.23-1.15-.88-2.24-1.83-3.31-2.81-.5-.46-.84-.67-1.5-.15-4.22,3.36-8.49,6.67-12.73,10.01-2.47,1.94-4.82,4.07-7.43,5.82-3.7,2.49-7.94,3.32-12.37,3.47,2.77-2.33,5.47-4.61,8.17-6.88-5.46.04-10.7.27-15.71,2.28-6.26,2.52-12.75,2.66-19.3,1.26-.82-.18-1.64-.37-2.79-.64,2.59-.2,4.83-.37,7.07-.54,4.55-.35,8.61-2.15,12.42-4.44,3.86-2.32,8.03-3.47,12.4-4.1,6-.88,11.45-3.15,16.17-6.93,2.65-2.12,4.99-4.61,7.45-6.96.75-.72.98-1.42.63-2.62-2.28-7.94-.74-15.04,4.83-21.3,4.06-4.57,8.91-8.2,13.64-11.97,4.79-3.82,9.3-7.93,12.59-13.19,1.45-2.32,2.19-4.79,1.52-7.56-.2-.81-.56-1.14-1.44-1.13-6.68.04-13.35.02-20.03.09-.41,0-1.07.52-1.16.9-.33,1.4-.5,2.83-.68,4.26-.14,1.1.35,1.45,1.47,1.43,5.62-.06,11.24-.04,16.87-.04.45,0,.9,0,1.36,0-.41,2.34-1.9,3.68-4.08,3.68-4.17,0-8.33,0-12.5.02-.48,0-.96.04-1.57.07,1.49,3.59,4.15,5.99,7.01,8.45-2.36,2.03-4.65,4-6.98,6.01-5.38-4.31-9.74-9.17-10.79-16.13-.78-5.21.58-10.02,3.52-14.37,2.84-4.2,6.58-7.54,10.43-10.75,2.03-1.7,4.25-3.18,6.23-4.93,1.37-1.21,2.57-2.65,3.66-4.12,1.3-1.74,1.09-3.75.51-5.81,3.44,2.2,4.35,6.09,2.2,9.89-.93,1.64-2.1,3.18-3.36,4.59-3.3,3.7-6.72,7.3-10.06,10.96-.51.56-.87,1.27-1.43,2.1h19.66c-.56-1.17-.95-2.1-1.43-2.98-1.06-1.98-2.15-3.94-3.26-5.9-.52-.92-.45-1.7.51-2.49,2.13,1.93,4.27,3.86,6.49,5.88,1.63-1.34,3.3-2.65,4.92-4.03,5.33-4.55,10.73-9.02,15.94-13.7,5.95-5.34,10.22-11.93,13.82-19.05,1.8-3.56,3.38-7.13,4.18-11.01.45-2.2.85-4.42,1.06-6.65.39-4.09.65-8.19.93-12.29.22-3.3.48-6.59.56-9.89.1-3.76-1.26-7.24-2.35-10.76-2.19-7.02-4.79-13.94-6.44-21.09-1.25-5.41-1.28-11.11-1.9-16.68-.09-.81-.3-1.68-.71-2.37-3.79-6.45-4.71-13.27-2.94-20.54,1.71-7,5.89-12.37,10.95-17.39Z"/>
    <path class="st2" d="M290.39,304.16c-1.79-1.55-3.58-3.1-5.53-4.78,1.88-1.18,3.72-2.48,5.7-3.49.63-.32,1.9-.19,2.47.25,4.84,3.82,8.72,8.38,10.23,14.54.9,3.68.52,7.33-.48,10.95-.12.43-.04,1.13.24,1.42,3.64,3.7,7.14,7.58,11.57,10.4,3.15,2,6.62,3.2,10.24,4.02,4.11.94,8.29,1.72,12.29,3.02,2.67.86,5.03,2.61,7.62,3.78,4.43,2.01,9.1,2.9,14.04,2.89-.97.24-1.93.53-2.91.7-5.18.89-10.35.99-15.45-.53-3.71-1.1-7.28-2.74-11.21-3.04-2.27-.17-4.53-.42-6.79-.64-.09.19-.18.37-.27.56,2.73,2.26,5.46,4.52,8.13,6.73-2.84.34-5.71-.51-8.6-1.36-2.94-.87-5.14-2.83-7.34-4.79-4.26-3.8-8.66-7.37-13.9-9.82-1.59-.74-2.88-2.11-4.34-3.22-5.08,4.71-11.03,7.73-17.21,10.51-4.38,1.97-7.88,5.26-9.67,9.97-.12.3-.31.58-.61,1.12-.94-2.76-.42-5.1.65-7.33,2.78-5.78,7.04-10.29,12.3-13.85,4.78-3.24,9.01-6.99,12.08-11.93.12-.2.23-.4.45-.79-.71-.03-1.23-.08-1.76-.08-6.22,0-12.45,0-18.67,0-2.01,0-2.01,0-2.03-1.94,0-.5,0-.99,0-1.7h22.94c.32-2.81-.62-5.1-1.83-7.29-.2-.37-1.02-.55-1.56-.55-5.06-.04-10.13-.02-15.23-.02.37-2.12,1.73-3.28,3.59-3.28,3.55,0,7.1,0,10.64,0,.07-.14.14-.29.22-.43Z"/>
    <path class="st2" d="M286.77,122.67c-.93-10.42-1.86-20.83-2.79-31.23-.21,0-.42-.02-.63-.03-.98,10.62-1.97,21.24-2.95,31.86-12.65-11.36-15.01-33.7,3.47-48.28,16.87,14.5,15.76,36.44,2.91,47.68Z"/>
    <path class="st2" d="M441.68,200.83c-10.15,11.9-23.83,19.37-40.03,14.63,6.14-4.03,12.62-6.96,19.11-9.92-7.69,1.19-14.86,4.04-22.16,6.67,2.59-7.87,8.02-12.88,15.58-15.6,9.87-3.55,18.84-.78,27.5,4.22Z"/>
    <path class="st2" d="M314.4,115.3c.76,8.5.29,16.84-3.92,24.49-3.03,5.52-7.77,9.18-13.74,11.2-.23.08-.48.08-.94.15,1.31-7.12,5.09-13.09,7.88-19.48-2.73,2.27-4.88,5.01-6.41,8.18-1.53,3.18-2.87,6.45-4.27,9.63-2.53-4.02-3.13-13.13.41-19.91,3.6-6.89,11.15-13.98,20.98-14.26Z"/>
    <path class="st2" d="M422.19,238.87c-3.87,1.03-7.64,2.18-11.47,3.02-4.49.99-9.05,1.06-13.56,0-6.87-1.63-12.42-5.23-17.12-11.19,8.81.7,17.31,1.89,25.81,3.26-8.11-3.3-16.26-6.36-25.36-6.58,12.83-9.64,32.88-5.14,41.71,11.49Z"/>
    <path class="st2" d="M252.83,114.75c15.61,1.04,28.56,19.65,21.34,35.53-2.41-7.77-6.33-14.45-11.56-20.36,1.63,3.44,3.37,6.83,4.85,10.33,1.47,3.47,2.68,7.05,4.15,10.97-4.09-1.49-7.44-3.37-10.39-5.94-4.18-3.63-6.33-8.37-7.63-13.63-1.38-5.58-1.51-11.18-.75-16.9Z"/>
    <path class="st2" d="M144.58,237.96c8.72-15.8,28.69-21.47,41.25-11.67-4.14.81-8.4,1.45-12.57,2.51-4.11,1.05-8.11,2.53-12.16,3.82.04.13.09.25.13.38,8.28-1.1,16.57-2.21,24.85-3.31-1.16,2.56-3.01,4.28-4.98,5.82-7.56,5.9-16.12,7.48-25.37,5.42-3.69-.82-7.31-1.94-11.15-2.97Z"/>
    <path class="st2" d="M416.5,122.78c-1.73,14.97-11.26,25.51-24.51,27.34,3.1-6.05,6.95-11.41,11.41-16.37-6.28,4.38-11.49,9.77-15.49,16.37-1.91-5.54-.42-14,5.45-20.32,6.34-6.82,14.23-8.56,23.14-7.02Z"/>
    <path class="st2" d="M223.05,118.24c-2.74-5.68-5.43-11.26-8.12-16.85-.18.07-.36.14-.54.21,2.06,5.88,4.49,11.64,5.83,18.04-4.75-1.73-8.55-4.27-11.38-8.13-4.25-5.79-5.15-12.47-4.91-19.39.08-2.34.4-4.67.61-7.01,12.42,1.45,25.14,14.35,18.51,33.12Z"/>
    <path class="st2" d="M362.2,85.62c.99,6.87,1.46,13.56-.76,20.09-2.41,7.11-7.12,12.01-14.86,14.45,1.96-6.11,3.81-11.9,5.66-17.68-.13-.06-.27-.11-.4-.17-2.47,5.28-4.95,10.56-7.4,15.78-2.66-4.59-3.14-13.77.32-20.35,3.67-6.99,9.64-10.81,17.45-12.12Z"/>
    <path class="st2" d="M164.05,132.57c4.19,5.14,8.09,10.43,10.85,16.53-10.78-1.58-21.47-10.54-23.67-27.17,8.29-1.45,15.78.23,21.85,6.16,5.92,5.78,8.23,12.89,6.4,21.5-4.27-6.79-9.11-12.6-15.44-17.03Z"/>
    <path class="st2" d="M325.87,73.24c.58,6.74.6,13.18-2.06,19.28-2.96,6.81-7.81,11.78-14.84,14.47-.22.08-.46.11-.88.2,2.27-6.72,5.47-12.76,9.12-18.6-5.28,5.27-9.51,11.26-12.66,18.08-1.87-6.16-1.49-12.24,1.26-18.01,4-8.43,10.93-13.25,20.05-15.43Z"/>
    <path class="st2" d="M262.68,107.16c-2.82-7.41-7.48-13.06-12.46-18.51,3.46,5.91,6.95,11.79,9.22,18.38-11.59-3.07-20.71-16.68-18.06-33.74,14.43,2.79,25.91,17.22,21.3,33.86Z"/>
    <path class="st2" d="M366.2,178.67c-8.71-15.3.45-30.36,12.91-35.09,6.9,8.29.72,30.46-9.65,34.05,1.03-5.6,2.05-11.1,3.07-16.61-.2-.05-.4-.11-.6-.16-1.9,5.89-3.79,11.78-5.73,17.81Z"/>
    <path class="st2" d="M169.07,159.17c13.64,3.24,24.35,17.9,17.44,32.1-2.59-5.74-5.39-11.32-9.15-16.35,1.97,5.38,3.95,10.77,6.03,16.46-11.77-3.71-19.02-19.18-14.32-32.21Z"/>
    <path class="st2" d="M201.55,177.42c-1.94-5.74-3.91-11.58-5.87-17.41-.28.06-.55.13-.83.19.8,5.37,1.61,10.73,2.45,16.34-9.4-4.54-15.65-21.01-9.5-33.4,12.38,4.23,22.65,19.17,13.75,34.29Z"/>
    <path class="st2" d="M397.99,160.15c4.61,15.71-3.82,28.56-14.32,32.49,2.02-5.72,3.93-11.13,5.84-16.54-.11-.07-.22-.14-.33-.2-3.1,5.45-6.2,10.9-9.26,16.27-6.11-13.8,5.38-29.31,18.06-32.02Z"/>
    <path class="st2" d="M354.13,122.47c3.45,12.26-.45,27.11-14.49,32.54.78-2.93,1.45-5.67,2.26-8.37.8-2.65,1.76-5.25,2.52-7.95-3.14,4.05-5.06,8.81-7.44,13.51-4.89-14.14,3.36-26.59,17.15-29.73Z"/>
    <path class="st2" d="M355.32,236.14c3.17,1.33,6.11,2.45,8.94,3.8,2.76,1.31,5.41,2.86,8.2,4.14-4.87-3.95-9.82-7.78-15.84-10.24,12.11-4.92,27.21,6.5,27.88,20.89-14.85,2.72-26.58-7.74-29.17-18.58Z"/>
    <path class="st2" d="M230.23,151.03c-2.4-4.57-4.86-9.23-7.32-13.9-.24.1-.47.2-.71.3,1.75,5.64,3.51,11.28,5.27,16.96-10.79-2.27-19.04-21.51-13.99-32.44,12.67,2.8,22.03,16.31,16.74,29.08Z"/>
    <path class="st2" d="M195.51,243.35c5.11-2.64,10.23-5.28,15.56-8.03-.3,11.1-16.72,21.43-28.57,18.48.26-10.75,11.52-24.88,27.4-21.17-5.58,2.8-10.13,6.6-14.39,10.72Z"/>
    <path class="st2" d="M148.93,152.12c3.03,4.03,6.05,8.06,9.26,12.34-11.43-1.24-22.01-11.46-22.36-22.54,6.69-1.34,12.84-.17,18.14,4.22,5.6,4.63,8.01,10.67,7.28,18.3-3.61-4.94-7.69-8.91-12.33-12.33Z"/>
    <path class="st2" d="M417.8,153.12c-4.02,3.69-8.03,7.38-11.96,10.99-1.78-10.83,9.99-24.7,25.11-21.17.1,10.11-9.82,21-21.49,22.27,1.5-2.15,2.84-4.19,4.3-6.13,1.43-1.9,2.99-3.69,4.49-5.53-.15-.14-.29-.29-.44-.43Z"/>
    <path class="st2" d="M199.03,182.22c12.83,4.27,20.19,17.53,12.95,29.63-1.71-4.53-3.47-9.19-5.23-13.84-.18.06-.37.13-.55.19,1.1,4.39,2.2,8.78,3.36,13.4-10.56-6.83-14.1-19.91-10.53-29.39Z"/>
    <path class="st2" d="M357.51,211.96c1.13-4.48,2.21-8.74,3.29-13-.13-.05-.26-.1-.38-.14-1.9,4.51-3.8,9.03-5.72,13.58-6.79-13.4,1.62-25.49,13.37-29.4,3.4,9.12-.53,22.95-10.57,28.97Z"/>
    <path class="st2" d="M281.66,191.69c.2,3-2.08,4.83-5.22,3.67-4.89-1.81-9.64-3.99-14.43-6.04-2.74-1.17-5.46-2.41-8.2-3.59-1.83-.79-2.65-2.53-2.01-4.4,1.02-2.99,3.26-3.99,6.16-2.81,6.81,2.77,13.64,5.51,20.45,8.28,2.1.85,3.25,2.6,3.25,4.89Z"/>
    <path class="st2" d="M254.27,150.21c2.01,11.79-3.27,21.96-12.93,24.84,1.6-3.99,3.18-7.92,4.75-11.85-.18-.1-.35-.19-.53-.29-2.4,4.04-4.81,8.08-7.18,12.07-3.77-11.73,4.93-23.56,15.88-24.77Z"/>
    <path class="st2" d="M313.13,151.04c10.13-.5,18.18,12.34,15.27,24.73-2.28-4.09-4.47-8-6.65-11.92-.15.06-.31.13-.46.19,1.5,4.03,3.01,8.05,4.57,12.22-10.89-4.2-14.75-14.9-12.72-25.23Z"/>
    <path class="st2" d="M276.09,200.56c.13,3.11-2.66,4.01-5.05,3.34-2.67-.75-5.25-1.82-7.82-2.86-4.01-1.63-7.97-3.38-11.98-5.01-1.56-.64-2.21-1.76-2.27-3.35-.07-1.91.7-3.47,2.27-4.45.53-.34,1.59-.16,2.27.11,6.11,2.39,12.2,4.84,18.3,7.28.37.15.73.32,1.11.46,2.51.92,3.19,1.87,3.18,4.47Z"/>
    <path class="st2" d="M262.32,167.19c3.52.22,5.86,2.17,8,4.4.86.9,1.71,1.89,2.22,3,.93,2.01,2.59,2.74,4.54,3.21,1.4.34,2.78.76,4.16,1.2,1.54.49,2.23,1.51,2.14,3.16-.08,1.43-.71,2.39-2.2,2.82-1.13.33-2.09.3-3.17-.17-6.51-2.87-13.03-5.72-19.57-8.53-3.52-1.51-2.5-6.1-.18-7.47,1.24-.73,2.69-1.1,4.05-1.63Z"/>
    <path class="st2" d="M300.43,168.56c-2.69.83-5.2,1.46-7.59,2.39-2.96,1.16-5.85,2.51-8.71,3.9-2.83,1.38-5.77,1.46-8.59.46-1.03-.37-1.63-1.96-2.37-3.04-.06-.08.36-.53.6-.77,2.98-3.14,6.76-5.08,10.58-6.94,1.25-.61,2.48-1.27,3.76-1.81,3.85-1.61,7.49-.69,10.08,2.54.8,1,1.46,2.11,2.24,3.25Z"/>
    <path class="st2" d="M265.04,206.04c-.02,2.56-1.75,3.81-4.36,3-3.27-1.01-6.48-2.24-9.71-3.39-.75-.27-1.48-.58-2.22-.88-2.15-.88-2.47-1.47-2.07-3.8.09-.53.21-1.08.42-1.57,1.08-2.48,1.41-2.61,3.88-1.55,4.07,1.74,8.13,3.52,12.21,5.23,1.41.59,1.94,1.63,1.84,2.96Z"/>
    <path class="st2" d="M285.4,161.71c-5.18,2.02-9.85,4.69-13.75,8.78-1.14-.94-2.32-1.9-3.5-2.87,3.3-7.19,9.85-10.58,17.25-5.91Z"/>
    <path class="st2" d="M284.31,342.27c1.65-.64,3.09-1.31,4.61-1.74.56-.16,1.47.04,1.91.43,2.67,2.32,4.94,4.96,5.45,8.64.15,1.12.02,2.29-.24,3.49-1.76-5.88-6.75-8.1-11.72-10.82Z"/>
    <path class="st2" d="M276.53,323.9h10.23c-.01,2.92-.5,3.47-3.17,3.09-2.48-.35-4.82-1.18-7.06-3.09Z"/>
    <g>
      <path class="st2" d="M308.62,243.08c-6.18-5.78-11.66-12.27-19.3-16.73,5.96-1.28,10.69-4.29,15.47-7.27,4.83-3.01,9.11-6.62,13.13-10.7,3.68,3.16,7.35,6.31,11.02,9.46-1.85,5-9.44,16.23-20.32,25.24Z"/>
      <path class="st2" d="M304.61,239.21l21.91-23.45,5.39,4.51s-11.12,22.35-20.92,25.43l-6.39-6.5Z"/>
    </g>
    <g>
      <path class="st2" d="M235.84,219.04c4.42-3.74,8.65-7.26,12.79-10.87.81-.71,1.41-.7,2.34-.37,3.29,1.15,6.55,2.44,9.93,3.23,4.24.99,7.41-2.44,5.99-6.8,2.72,1.4,5.36,2.64,8.27,1.3,2.53-1.16,3.44-3.91,2.62-7.52,5.48-1.39,7.27-5.76,4.52-11,4.35-3.02,4.66-6.53.04-9.4,2.13-.84,4.21-1.64,6.27-2.48,4.19-1.72,8.33-3.56,12.56-5.17,2-.76,4.11-1.1,6.29-.3,2.69.98,4.46,5.83,1.21,7.94-1.8,1.17-3.48,2.51-5.22,3.78-.34.25-.65.53-.97.8.06.11.12.21.19.32,2.05-.94,4.17-1.75,6.14-2.84,3.3-1.83,5.91,1.14,6.14,3.79.12,1.36-.11,2.59-1.3,3.48-1.92,1.43-3.82,2.87-5.73,4.3-.36.27-.74.52-1.11.78.08.12.15.24.23.37,1.61-.83,3.21-1.68,4.83-2.49,2.63-1.33,4.87.06,5.29,3.03.48,3.41-1.49,5.29-3.9,7.01-.87.62-1.74,1.22-2.61,1.83.08.13.15.25.23.38,1.38-.76,2.77-1.51,4.15-2.27.48-.26.95-.69,1.45-.74.59-.05,1.45.03,1.77.41,1.28,1.55,1.55,4.34-.11,6.02-6.02,6.07-12.43,11.61-20.19,15.39-5.38,2.62-10.97,4.31-17.04,3.61-1.71-.2-3.39-.69-5.31-.85,1.25,1.01,2.51,2.02,3.77,3.04-2.03,1.44-4.21,2.7-6.05,4.34-3.69,3.3-7.18,6.83-10.78,10.24-.98.93-2.13,1.7-2.99,2.73-.96,1.14-1.72.93-2.75.18-2.9-2.11-5.84-4.16-8.77-6.24-.23-.16-.47-.3-.8-.31,6.39,5.87,13.21,11.19,20.17,16.26-2.18,3.4-4.37,6.82-6.68,10.42-2.36-1.79-4.85-3.69-7.35-5.58-12.8-9.66-25.34-19.69-39.52-27.35-4.56-2.46-9.14-4.92-13.74-7.31-3.62-1.89-7.56-2.81-11.57-3.4-6.85-1.01-13.56-2.4-19.45-6.34-.46-.3-1.01-.55-1.32-.97-2.68-3.57-6.82-4.58-10.68-5.94-3.48-1.22-7.11-1.99-10.68-2.94-.27-.07-.58,0-.99,0,6.55,3.26,12.97,6.45,19.69,9.79-11.91,4.39-26.72,1.37-39.86-14.35,2.72-1.33,5.28-2.77,7.99-3.86,4.98-2.01,10.2-2.76,15.47-1.61,8.96,1.96,15.82,6.88,19.15,15.61.95,2.48,2.39,3.06,4.4,3.54,5.83,1.39,11.76.79,17.8.89-.1-.39-.08-.72-.24-.9-3.73-4.05-7.35-8.22-11.26-12.09-4.9-4.86-10.71-8.52-16.96-11.42-1.03-.48-2.33-.46-3.51-.52-7.32-.36-14.32-1.83-20.36-6.24-4.95-3.61-8.43-8.47-11.37-14.05,8.35-3.61,16.63-4.12,24.93-.42,7.29,3.25,12.88,10.71,13.16,17.41-6.12-3.76-12.26-7.24-19.32-8.75.31.21.61.47.95.62,5.05,2.18,9.47,5.32,13.84,8.62,2.25,1.7,5.05,2.74,7.72,3.78,7.06,2.75,13.8,6.09,19.76,10.79,3.73,2.94,7.24,6.17,10.77,9.35,5.05,4.55,10.9,7.69,17.19,10.12,2.32.9,4.63,1.81,6.94,2.71.4.16.81.28,1.4.49-.32-1.8-.68-3.38-.87-4.98-.33-2.78-.71-5.57-.8-8.36-.14-4.36-.03-8.73-.06-13.1-.04-7.6-1.88-14.8-4.89-21.75-3.84-8.86-7.83-17.66-11.42-26.62-2.14-5.35-3.65-10.95-5.41-16.44-.92-2.86-2.47-5.35-4.52-7.51-3.24-3.41-6.55-6.77-9.84-10.14-.23-.24-.54-.41-.93-.51,4.96,6.52,10.23,12.81,13.83,20.44-8.95-1.37-16.49-4.77-21.46-12.52-2.6-4.06-3.99-8.59-4.76-13.31-.37-2.26-.61-4.55-.96-7.15,2.7.22,5.24.31,7.75.64,6.4.84,12.33,2.99,16.94,7.62,5.9,5.92,8.03,13.08,5.95,21.32-.11.45-.12,1.05.08,1.45,3.7,7.17,7.29,14.41,11.24,21.45,2.49,4.43,5.54,8.54,8.31,12.81.72,1.11,1.29,2.31,2.06,3.71.48-1.19.83-2.25,1.31-3.25,1.98-4.13,3.94-8.27,6.01-12.36,3.02-5.96,5.14-12.19,6.12-18.8.45-3.06.82-6.14,1.38-9.18.75-4.04-.62-7.83-1.14-11.71-.17-1.26-.46-2.5-.7-3.74-.15.01-.3.02-.45.03v14.59c-8.05-8.36-9.72-23.86-3.1-35.2,5.2,5.31,9.69,10.95,11.07,18.5,1.16,6.31.71,12.4-2.66,17.99-.92,1.52-1.12,2.99-1.17,4.66-.3,10.2-2.23,20.09-5.79,29.68-1.71,4.61-3.37,9.28-4.52,14.04-.66,2.75-.39,5.76-.31,8.65.07,2.55.5,5.08.71,7.62.34,4.19.48,8.41.98,12.58.56,4.66,1.97,9.13,4.13,13.84Z"/>
      <path class="st2" d="M266.63,237.12s-12.11,12.11-14.2,15.08l-10.46-17.72,10.24-3.52,14.42,6.17Z"/>
    </g>
  </g>
</svg>