<?xml version="1.0" encoding="UTF-8"?>
<svg id="Layer_1" xmlns="http://www.w3.org/2000/svg" version="1.1" viewBox="0 0 566.93 566.93">
  <!-- Generator: Adobe Illustrator 29.7.0, SVG Export Plug-In . SVG Version: 2.1.1 Build 138)  -->
  <defs>
    <style>
      .st0 {
        fill: #2c3e50;
      }
    </style>
  </defs>
  <path class="st0" d="M347.46,128.22c7.73,14.34,6.84,33.33-3.83,45.66v-19.5c-.23-.02-.47-.04-.7-.07-.17.94-.36,1.87-.52,2.81-.92,5.46-2.54,10.87-1.84,16.49.52,4.23,1.23,8.45,1.88,12.66,1.84,11.93,7.04,22.6,12.42,33.21,1.73,3.43,3.1,7.04,4.69,10.69,2.17-3.49,4.35-6.98,6.5-10.47,4.72-7.63,9.57-15.18,14.08-22.93,2.64-4.55,4.78-9.4,6.98-14.19.41-.9.2-2.19,0-3.25-1.96-10.65.93-19.77,8.85-27.11,5.7-5.28,12.67-8.02,20.37-8.87,3.16-.35,6.34-.46,10.02-.71-.51,3.53-.9,6.66-1.42,9.78-1.06,6.37-3.15,12.34-6.94,17.65-5.25,7.37-12.66,11.27-21.25,13.28-1.47.34-2.97.57-4.45.85l-.52-.57c2.79-4.31,5.45-8.72,8.41-12.92,2.92-4.14,6.14-8.06,8.97-12.35-1.29,1.13-2.59,2.25-3.87,3.4-4.57,4.12-9.15,8.31-12.12,13.73-2.09,3.81-3.7,7.96-5.01,12.11-3.47,11.05-7.62,21.81-12.35,32.37-3.79,8.46-7.55,16.95-10.9,25.58-2.39,6.16-2.87,12.77-3.03,19.37-.19,7.74-.32,15.48-.72,23.21-.16,3.14-.97,6.24-1.53,9.63,2.14-.79,4.24-1.57,6.35-2.36,7.94-2.95,15.8-6.14,22.57-11.36,4.5-3.47,8.86-7.14,13.08-10.93,7.49-6.73,16.1-11.56,25.35-15.34,4.27-1.74,8.66-3.22,13.03-4.83-.27-.18-.64-.43-1.15-.78,6.56-4.99,13.17-9.6,20.81-12.68-1.51-.68-6.01.62-12.81,3.92-4.05,1.97-7.94,4.25-11.93,6.41,4.11-20.83,27.21-30.47,48.78-21.15-1.44,2.41-2.75,4.86-4.3,7.14-5.14,7.57-11.83,13.22-20.71,15.92-4.92,1.49-9.99,2.07-15.14,2.17-1.48.03-3.12.31-4.4,1-7.47,4.02-14.93,8.17-21.07,14.12-3.99,3.86-7.54,8.17-11.28,12.28-.99,1.09-1.97,2.18-2.93,3.3-.29.34-.51.75-.85,1.27,5.27,0,10.24.17,15.2-.05,4.88-.21,9.72-.91,14.25-3.03-2.91,3.81-6.86,6.12-11.23,7.27-6.26,1.65-12.67,2.73-19.04,3.95-5.36,1.03-10.47,2.72-15.22,5.39-10.42,5.87-21.03,11.44-31.12,17.81-9.05,5.72-17.58,12.25-26.2,18.62-6.21,4.59-12.09,9.62-18.31,14.19-2.16,1.58-2.88,3.4-2.81,5.8.14,4.46-.22,8.88-2.43,12.82-1.54,2.75-3.24,5.6-5.52,7.71-5.01,4.62-10.44,8.79-15.68,13.16-4.07,3.39-8.35,6.58-12.08,10.32-2.38,2.38-4.39,5.38-5.74,8.46-2.03,4.62-.32,9.1,1.94,13.3,2.43,4.52,6.16,7.76,10.75,10.56-2.92,2.27-5.65,4.45-8.47,6.52-.33.24-1.26.02-1.67-.29-1.47-1.12-2.86-2.34-4.23-3.58-.64-.59-1.07-.86-1.91-.19-5.39,4.29-10.83,8.52-16.25,12.78-3.16,2.48-6.16,5.19-9.48,7.43-4.72,3.18-10.14,4.23-15.79,4.43,3.53-2.97,6.98-5.88,10.42-8.78-6.97.05-13.66.34-20.05,2.91-7.99,3.21-16.27,3.4-24.63,1.61-1.05-.23-2.1-.48-3.56-.81,3.3-.25,6.16-.47,9.02-.69,5.8-.45,10.99-2.74,15.86-5.67,4.92-2.96,10.24-4.42,15.83-5.24,7.66-1.12,14.61-4.02,20.64-8.84,3.38-2.7,6.37-5.89,9.5-8.88.96-.91,1.25-1.81.81-3.35-2.91-10.13-.95-19.19,6.16-27.18,5.19-5.83,11.37-10.46,17.41-15.28,6.12-4.88,11.87-10.12,16.07-16.84,1.85-2.96,2.79-6.11,1.94-9.64-.25-1.04-.72-1.45-1.83-1.44-8.52.06-17.04.03-25.56.11-.52,0-1.37.66-1.48,1.15-.43,1.78-.63,3.62-.87,5.44-.18,1.4.45,1.84,1.88,1.83,7.17-.08,14.35-.05,21.52-.05.57,0,1.15,0,1.73,0-.52,2.98-2.43,4.69-5.2,4.7-5.32,0-10.63,0-15.95.02-.61,0-1.22.05-2.01.08,1.91,4.58,5.3,7.64,8.95,10.79-3.01,2.59-5.93,5.11-8.91,7.67-6.86-5.51-12.43-11.71-13.77-20.59-1-6.64.74-12.79,4.49-18.34,3.62-5.36,8.4-9.62,13.31-13.73,2.59-2.17,5.43-4.06,7.96-6.3,1.75-1.55,3.27-3.39,4.67-5.26,1.66-2.22,1.39-4.79.66-7.42,4.39,2.81,5.55,7.78,2.81,12.62-1.18,2.09-2.68,4.06-4.28,5.86-4.21,4.73-8.57,9.31-12.83,13.99-.66.72-1.11,1.62-1.83,2.68h25.09c-.71-1.5-1.22-2.68-1.82-3.81-1.36-2.52-2.75-5.03-4.16-7.53-.66-1.18-.57-2.17.65-3.18,2.72,2.46,5.44,4.93,8.28,7.51,2.08-1.7,4.22-3.39,6.28-5.15,6.8-5.8,13.69-11.51,20.34-17.49,7.6-6.82,13.04-15.23,17.64-24.31,2.3-4.54,4.31-9.09,5.34-14.05.58-2.8,1.08-5.64,1.36-8.48.5-5.22.83-10.45,1.19-15.68.29-4.21.61-8.41.72-12.63.12-4.8-1.61-9.25-3-13.74-2.79-8.96-6.11-17.79-8.22-26.91-1.6-6.91-1.63-14.18-2.42-21.28-.12-1.04-.38-2.15-.9-3.03-4.84-8.24-6.02-16.93-3.75-26.21,2.18-8.93,7.52-15.78,13.97-22.2Z"/>
  <path class="st0" d="M292.3,399.42c-2.29-1.98-4.57-3.95-7.06-6.1,2.4-1.51,4.75-3.16,7.28-4.45.81-.41,2.43-.25,3.15.32,6.17,4.88,11.12,10.69,13.05,18.56,1.15,4.7.67,9.36-.61,13.98-.15.55-.05,1.44.31,1.81,4.65,4.73,9.11,9.67,14.77,13.27,4.02,2.55,8.44,4.08,13.07,5.13,5.25,1.2,10.58,2.19,15.69,3.85,3.4,1.1,6.42,3.33,9.72,4.83,5.65,2.57,11.61,3.7,17.92,3.69-1.24.3-2.46.68-3.71.9-6.61,1.14-13.2,1.26-19.72-.67-4.74-1.4-9.29-3.49-14.31-3.88-2.89-.22-5.78-.54-8.67-.81-.12.24-.23.47-.35.71,3.48,2.88,6.97,5.76,10.38,8.59-3.63.44-7.29-.65-10.98-1.74-3.76-1.11-6.56-3.61-9.37-6.11-5.44-4.85-11.05-9.41-17.74-12.53-2.03-.95-3.68-2.7-5.54-4.11-6.49,6.02-14.08,9.86-21.97,13.41-5.6,2.52-10.06,6.71-12.34,12.73-.15.39-.4.74-.78,1.43-1.2-3.52-.53-6.51.84-9.35,3.55-7.37,8.98-13.13,15.7-17.68,6.09-4.13,11.5-8.92,15.42-15.22.16-.25.29-.52.57-1.01-.9-.04-1.57-.1-2.25-.1-7.94,0-15.89-.01-23.83,0-2.56,0-2.56,0-2.59-2.48,0-.63,0-1.27,0-2.18h29.27c.41-3.59-.8-6.51-2.33-9.3-.26-.47-1.31-.7-1.99-.7-6.46-.05-12.92-.03-19.44-.03.48-2.7,2.2-4.18,4.59-4.18,4.53,0,9.06,0,13.58,0,.09-.18.18-.37.28-.55Z"/>
  <path class="st0" d="M287.68,167.8c-1.19-13.3-2.38-26.58-3.56-39.86-.27-.01-.54-.02-.81-.03-1.26,13.56-2.51,27.11-3.77,40.66-16.14-14.49-19.15-43.01,4.43-61.62,21.53,18.51,20.11,46.51,3.71,60.86Z"/>
  <path class="st0" d="M485.38,267.55c-12.95,15.19-30.41,24.72-51.09,18.67,7.84-5.14,16.11-8.89,24.39-12.66-9.81,1.52-18.97,5.16-28.28,8.51,3.31-10.04,10.23-16.44,19.88-19.91,12.6-4.53,24.04-1,35.09,5.38Z"/>
  <path class="st0" d="M322.95,158.39c.97,10.85.37,21.49-5,31.26-3.87,7.04-9.92,11.71-17.54,14.3-.29.1-.61.1-1.2.2,1.67-9.09,6.49-16.71,10.06-24.86-3.48,2.9-6.23,6.39-8.18,10.44-1.95,4.05-3.66,8.23-5.45,12.29-3.23-5.13-4-16.76.53-25.42,4.59-8.79,14.24-17.85,26.78-18.2Z"/>
  <path class="st0" d="M460.51,316.1c-4.94,1.32-9.75,2.78-14.64,3.85-5.73,1.26-11.55,1.35-17.31-.01-8.77-2.08-15.85-6.67-21.85-14.28,11.25.89,22.1,2.41,32.94,4.16-10.34-4.22-20.76-8.12-32.37-8.4,16.38-12.31,41.97-6.56,53.23,14.67Z"/>
  <path class="st0" d="M244.37,157.69c19.92,1.33,36.45,25.07,27.23,45.34-3.08-9.91-8.08-18.44-14.75-25.98,2.08,4.39,4.3,8.72,6.19,13.19,1.88,4.43,3.42,9,5.29,14-5.22-1.9-9.49-4.3-13.26-7.58-5.33-4.63-8.08-10.69-9.74-17.4-1.76-7.12-1.93-14.26-.96-21.57Z"/>
  <path class="st0" d="M106.21,314.94c11.12-20.16,36.61-27.41,52.65-14.89-5.28,1.03-10.73,1.85-16.04,3.21-5.24,1.34-10.35,3.23-15.52,4.87.05.16.11.32.16.48,10.57-1.41,21.14-2.82,31.71-4.23-1.48,3.27-3.84,5.46-6.35,7.42-9.65,7.53-20.57,9.54-32.38,6.92-4.71-1.05-9.33-2.47-14.23-3.79Z"/>
  <path class="st0" d="M453.25,167.95c-2.2,19.1-14.37,32.55-31.28,34.9,3.96-7.72,8.87-14.56,14.56-20.9-8.02,5.59-14.66,12.46-19.77,20.89-2.43-7.07-.54-17.87,6.96-25.93,8.1-8.71,18.16-10.92,29.53-8.96Z"/>
  <path class="st0" d="M206.37,162.14c-3.49-7.25-6.93-14.37-10.36-21.5-.23.09-.46.18-.69.27,2.63,7.5,5.73,14.86,7.44,23.03-6.06-2.21-10.91-5.45-14.52-10.37-5.42-7.39-6.57-15.91-6.27-24.75.1-2.99.51-5.96.78-8.95,15.85,1.85,32.09,18.32,23.62,42.27Z"/>
  <path class="st0" d="M383.95,120.51c1.26,8.77,1.86,17.3-.97,25.64-3.08,9.07-9.09,15.32-18.97,18.44,2.5-7.8,4.86-15.18,7.22-22.56-.17-.07-.34-.14-.51-.22-3.16,6.74-6.32,13.47-9.44,20.14-3.39-5.86-4.01-17.57.4-25.97,4.69-8.92,12.3-13.8,22.26-15.47Z"/>
  <path class="st0" d="M131.07,180.43c5.35,6.56,10.32,13.31,13.85,21.1-13.76-2.02-27.4-13.45-30.2-34.67,10.58-1.85,20.14.3,27.89,7.86,7.56,7.37,10.5,16.45,8.16,27.44-5.45-8.67-11.63-16.07-19.7-21.73Z"/>
  <path class="st0" d="M337.58,104.71c.74,8.6.76,16.82-2.63,24.61-3.78,8.69-9.97,15.03-18.93,18.47-.28.11-.58.14-1.12.26,2.9-8.57,6.98-16.28,11.64-23.74-6.74,6.72-12.13,14.37-16.16,23.07-2.39-7.86-1.9-15.62,1.6-22.98,5.11-10.75,13.95-16.91,25.59-19.69Z"/>
  <path class="st0" d="M256.94,148.01c-3.6-9.45-9.54-16.67-15.9-23.62,4.42,7.55,8.87,15.05,11.77,23.46-14.8-3.91-26.43-21.29-23.05-43.06,18.41,3.56,33.06,21.97,27.18,43.22Z"/>
  <path class="st0" d="M389.05,239.27c-11.12-19.53.57-38.75,16.48-44.78,8.8,10.58.92,38.87-12.32,43.46,1.32-7.15,2.62-14.17,3.91-21.2-.25-.07-.51-.14-.76-.21-2.42,7.52-4.84,15.04-7.31,22.72Z"/>
  <path class="st0" d="M137.47,214.38c17.4,4.13,31.08,22.84,22.25,40.97-3.31-7.33-6.88-14.45-11.67-20.87,2.52,6.87,5.04,13.74,7.7,21.01-15.02-4.73-24.27-24.48-18.28-41.11Z"/>
  <path class="st0" d="M178.92,237.67c-2.47-7.33-4.98-14.78-7.5-22.22-.35.08-.7.16-1.06.24,1.03,6.85,2.05,13.69,3.13,20.85-12-5.8-19.98-26.81-12.13-42.63,15.8,5.39,28.91,24.47,17.55,43.76Z"/>
  <path class="st0" d="M429.63,215.63c5.88,20.05-4.87,36.45-18.27,41.47,2.58-7.3,5.02-14.2,7.45-21.11-.14-.09-.28-.17-.42-.26-3.96,6.95-7.91,13.91-11.82,20.77-7.79-17.61,6.87-37.41,23.05-40.87Z"/>
  <path class="st0" d="M373.64,167.55c4.4,15.64-.57,34.6-18.49,41.53,1-3.74,1.84-7.24,2.89-10.69,1.02-3.38,2.25-6.7,3.21-10.14-4.01,5.17-6.46,11.24-9.49,17.25-6.24-18.05,4.29-33.93,21.89-37.94Z"/>
  <path class="st0" d="M375.16,312.62c4.04,1.7,7.79,3.13,11.41,4.84,3.52,1.67,6.9,3.64,10.46,5.29-6.22-5.05-12.53-9.93-20.22-13.07,15.45-6.27,34.72,8.29,35.58,26.66-18.95,3.48-33.92-9.88-37.23-23.71Z"/>
  <path class="st0" d="M215.52,204c-3.07-5.83-6.2-11.78-9.34-17.74-.3.13-.6.25-.9.38,2.24,7.2,4.47,14.4,6.73,21.65-13.78-2.89-24.3-27.45-17.85-41.4,16.17,3.58,28.11,20.82,21.37,37.11Z"/>
  <path class="st0" d="M171.21,321.81c6.53-3.37,13.05-6.74,19.85-10.25-.38,14.16-21.34,27.35-36.46,23.59.33-13.72,14.71-31.75,34.97-27.02-7.12,3.58-12.93,8.43-18.36,13.68Z"/>
  <path class="st0" d="M111.77,205.39c3.86,5.14,7.73,10.29,11.82,15.75-14.59-1.58-28.09-14.63-28.53-28.76,8.54-1.71,16.38-.21,23.15,5.39,7.14,5.91,10.22,13.62,9.3,23.36-4.61-6.3-9.81-11.37-15.73-15.73Z"/>
  <path class="st0" d="M454.91,206.66c-5.13,4.71-10.25,9.42-15.26,14.03-2.27-13.82,12.74-31.53,32.04-27.01.13,12.9-12.54,26.81-27.43,28.42,1.92-2.75,3.62-5.34,5.49-7.82,1.82-2.42,3.81-4.71,5.73-7.06-.19-.18-.38-.37-.56-.55Z"/>
  <path class="st0" d="M175.71,243.8c16.38,5.45,25.77,22.37,16.53,37.82-2.19-5.78-4.43-11.72-6.68-17.66-.24.08-.47.16-.71.24,1.4,5.6,2.81,11.21,4.28,17.1-13.48-8.72-17.99-25.41-13.44-37.5Z"/>
  <path class="st0" d="M377.96,281.75c1.45-5.71,2.83-11.16,4.2-16.6-.16-.06-.33-.12-.49-.18-2.43,5.76-4.85,11.52-7.3,17.33-8.67-17.1,2.06-32.53,17.07-37.53,4.34,11.64-.67,29.28-13.48,36.98Z"/>
  <path class="st0" d="M281.16,255.88c.26,3.83-2.66,6.17-6.66,4.68-6.24-2.31-12.3-5.09-18.42-7.71-3.5-1.5-6.97-3.07-10.47-4.58-2.34-1.01-3.38-3.23-2.57-5.61,1.31-3.82,4.16-5.1,7.86-3.59,8.69,3.53,17.4,7.04,26.1,10.57,2.68,1.09,4.14,3.32,4.15,6.24Z"/>
  <path class="st0" d="M246.2,202.95c2.56,15.04-4.18,28.02-16.5,31.7,2.04-5.09,4.06-10.11,6.07-15.12-.23-.12-.45-.24-.68-.37-3.07,5.16-6.14,10.32-9.17,15.41-4.82-14.97,6.29-30.06,20.27-31.62Z"/>
  <path class="st0" d="M321.33,204.01c12.93-.63,23.2,15.75,19.49,31.57-2.92-5.22-5.7-10.22-8.49-15.21-.2.08-.39.16-.59.25,1.92,5.14,3.84,10.28,5.83,15.6-13.89-5.36-18.83-19.02-16.24-32.2Z"/>
  <path class="st0" d="M274.05,267.2c.17,3.97-3.4,5.12-6.44,4.26-3.4-.95-6.7-2.32-9.98-3.65-5.12-2.07-10.17-4.31-15.28-6.39-1.99-.81-2.82-2.24-2.9-4.27-.09-2.44.9-4.43,2.89-5.68.68-.43,2.02-.2,2.9.14,7.8,3.04,15.57,6.18,23.35,9.29.47.19.93.41,1.41.59,3.2,1.18,4.07,2.39,4.06,5.71Z"/>
  <path class="st0" d="M256.48,224.62c4.49.28,7.48,2.77,10.21,5.62,1.1,1.14,2.18,2.42,2.84,3.83,1.18,2.57,3.31,3.49,5.79,4.1,1.79.44,3.55.97,5.31,1.53,1.96.62,2.84,1.93,2.73,4.03-.1,1.82-.9,3.05-2.81,3.6-1.44.42-2.67.39-4.04-.22-8.3-3.67-16.63-7.3-24.97-10.88-4.5-1.93-3.19-7.78-.23-9.53,1.58-.94,3.44-1.4,5.17-2.08Z"/>
  <path class="st0" d="M305.11,226.37c-3.43,1.06-6.64,1.86-9.69,3.05-3.78,1.48-7.47,3.21-11.12,4.98-3.61,1.76-7.36,1.87-10.96.59-1.31-.47-2.08-2.5-3.02-3.87-.07-.11.46-.67.76-.99,3.81-4.01,8.62-6.48,13.5-8.85,1.6-.78,3.17-1.62,4.8-2.31,4.91-2.05,9.56-.88,12.87,3.25,1.02,1.28,1.87,2.7,2.86,4.15Z"/>
  <path class="st0" d="M259.94,274.2c-.03,3.27-2.23,4.86-5.56,3.83-4.18-1.29-8.27-2.86-12.39-4.32-.96-.34-1.89-.74-2.83-1.13-2.74-1.12-3.16-1.88-2.64-4.86.12-.68.27-1.38.54-2.01,1.38-3.16,1.8-3.33,4.95-1.98,5.2,2.22,10.37,4.49,15.58,6.68,1.8.76,2.47,2.08,2.35,3.78Z"/>
  <path class="st0" d="M285.94,217.62c-6.61,2.58-12.57,5.99-17.55,11.2-1.46-1.2-2.96-2.43-4.47-3.66,4.21-9.18,12.57-13.51,22.02-7.54Z"/>
  <path class="st0" d="M284.54,448.06c2.11-.82,3.95-1.68,5.88-2.22.72-.2,1.87.06,2.44.55,3.41,2.96,6.31,6.33,6.95,11.02.2,1.43.03,2.92-.3,4.46-2.25-7.51-8.62-10.34-14.96-13.81Z"/>
  <path class="st0" d="M274.62,424.61h13.05c-.02,3.72-.64,4.43-4.04,3.95-3.17-.45-6.15-1.51-9.01-3.95Z"/>
  <g>
    <path class="st0" d="M315.57,321.47c-7.89-7.37-14.88-15.66-24.63-21.35,7.61-1.64,13.64-5.48,19.74-9.28,6.16-3.84,11.63-8.45,16.76-13.65,4.7,4.04,9.39,8.06,14.06,12.07-2.36,6.38-12.05,20.72-25.93,32.21Z"/>
    <path class="st0" d="M310.45,316.53l27.96-29.93,6.88,5.76s-14.19,28.52-26.7,32.46l-8.15-8.29Z"/>
  </g>
  <g>
    <path class="st0" d="M222.68,290.79c5.65-4.78,11.04-9.26,16.32-13.87,1.04-.9,1.8-.89,2.98-.48,4.19,1.47,8.36,3.12,12.67,4.12,5.41,1.26,9.46-3.11,7.65-8.68,3.47,1.79,6.84,3.36,10.55,1.66,3.22-1.48,4.39-4.99,3.34-9.59,6.99-1.77,9.28-7.35,5.77-14.04,5.55-3.86,5.94-8.33.05-11.99,2.72-1.08,5.37-2.09,8-3.17,5.34-2.2,10.63-4.54,16.03-6.6,2.55-.97,5.24-1.4,8.03-.38,3.43,1.25,5.69,7.44,1.54,10.13-2.3,1.49-4.45,3.21-6.66,4.83-.43.32-.83.68-1.24,1.02.08.14.16.27.24.4,2.62-1.2,5.33-2.24,7.84-3.63,4.21-2.33,7.54,1.45,7.83,4.84.15,1.74-.14,3.31-1.66,4.44-2.44,1.82-4.87,3.66-7.31,5.49-.46.34-.94.66-1.41.99.1.16.2.31.3.47,2.06-1.06,4.1-2.14,6.17-3.18,3.36-1.69,6.22.07,6.75,3.87.62,4.35-1.9,6.76-4.98,8.95-1.1.79-2.22,1.56-3.33,2.34.1.16.19.32.29.48,1.77-.96,3.53-1.93,5.3-2.89.61-.33,1.21-.88,1.85-.94.75-.07,1.85.03,2.26.52,1.63,1.97,1.98,5.54-.14,7.68-7.68,7.75-15.87,14.81-25.77,19.64-6.86,3.35-14,5.51-21.75,4.61-2.19-.25-4.33-.88-6.77-1.08,1.6,1.29,3.2,2.58,4.82,3.88-2.59,1.83-5.38,3.44-7.72,5.54-4.71,4.22-9.17,8.71-13.75,13.07-1.25,1.19-2.72,2.17-3.81,3.48-1.22,1.46-2.2,1.18-3.51.23-3.7-2.7-7.46-5.32-11.19-7.96-.29-.2-.59-.38-1.02-.39,8.15,7.5,16.85,14.28,25.74,20.75-2.78,4.34-5.58,8.7-8.53,13.3-3.01-2.29-6.19-4.71-9.38-7.12-16.33-12.33-32.33-25.13-50.43-34.9-5.83-3.14-11.66-6.27-17.53-9.33-4.63-2.41-9.65-3.58-14.77-4.34-8.74-1.29-17.31-3.06-24.82-8.09-.58-.39-1.28-.71-1.68-1.24-3.42-4.56-8.7-5.85-13.63-7.57-4.44-1.55-9.08-2.54-13.63-3.76-.34-.09-.73-.01-1.26-.01,8.36,4.16,16.55,8.23,25.13,12.49-15.2,5.61-34.1,1.75-50.87-18.31,3.47-1.69,6.74-3.53,10.2-4.93,6.35-2.56,13.02-3.52,19.75-2.05,11.44,2.5,20.19,8.79,24.44,19.92,1.21,3.17,3.06,3.91,5.62,4.52,7.44,1.77,15.01,1.01,22.72,1.13-.13-.5-.11-.92-.31-1.14-4.76-5.17-9.38-10.49-14.37-15.43-6.26-6.2-13.66-10.87-21.64-14.58-1.32-.61-2.98-.59-4.49-.66-9.34-.46-18.27-2.33-25.99-7.97-6.31-4.61-10.76-10.81-14.51-17.93,10.66-4.61,21.23-5.25,31.82-.53,9.31,4.15,16.44,13.67,16.8,22.22-7.81-4.8-15.65-9.25-24.65-11.16.4.27.77.6,1.21.79,6.44,2.78,12.08,6.79,17.66,11,2.87,2.16,6.45,3.5,9.85,4.82,9.01,3.51,17.61,7.77,25.21,13.77,4.76,3.75,9.24,7.87,13.75,11.93,6.44,5.8,13.92,9.81,21.94,12.91,2.96,1.14,5.91,2.31,8.86,3.46.51.2,1.03.36,1.79.62-.41-2.29-.87-4.31-1.11-6.36-.42-3.55-.9-7.11-1.01-10.67-.17-5.57-.04-11.14-.07-16.71-.05-9.7-2.4-18.89-6.24-27.75-4.89-11.31-9.99-22.54-14.57-33.98-2.73-6.82-4.65-13.97-6.91-20.99-1.18-3.65-3.16-6.83-5.77-9.58-4.14-4.36-8.36-8.64-12.56-12.94-.3-.31-.69-.52-1.19-.65,6.33,8.32,13.05,16.35,17.65,26.09-11.42-1.75-21.05-6.09-27.39-15.98-3.32-5.18-5.09-10.96-6.07-16.99-.47-2.89-.78-5.81-1.22-9.13,3.45.28,6.69.4,9.89.82,8.17,1.07,15.73,3.82,21.62,9.73,7.53,7.56,10.24,16.69,7.59,27.21-.15.58-.15,1.34.11,1.85,4.73,9.15,9.31,18.39,14.35,27.38,3.17,5.65,7.07,10.89,10.6,16.35.91,1.41,1.64,2.95,2.63,4.73.61-1.52,1.06-2.87,1.67-4.14,2.53-5.27,5.03-10.56,7.68-15.77,3.85-7.6,6.56-15.56,7.82-23.99.58-3.91,1.04-7.84,1.76-11.72.96-5.15-.8-9.99-1.46-14.95-.21-1.6-.59-3.19-.89-4.78-.19.01-.39.03-.58.04v18.62c-10.28-10.67-12.41-30.45-3.96-44.92,6.64,6.77,12.36,13.98,14.13,23.62,1.48,8.06.91,15.83-3.39,22.96-1.17,1.95-1.43,3.82-1.49,5.95-.39,13.02-2.84,25.64-7.39,37.87-2.19,5.88-4.3,11.84-5.77,17.92-.85,3.51-.5,7.36-.39,11.04.09,3.25.64,6.48.9,9.73.43,5.35.61,10.73,1.25,16.06.72,5.95,2.52,11.65,5.27,17.66Z"/>
    <path class="st0" d="M261.97,313.86s-15.46,15.46-18.12,19.25l-13.35-22.62,13.07-4.5,18.41,7.87Z"/>
  </g>
</svg>